<svg width="64" height="64" viewBox="0 0 64 64" fill="none" xmlns="http://www.w3.org/2000/svg">
<path d="M25.3334 40H46.6667L60.0001 64H40.6296C38.6094 64 36.7627 62.8587 35.8593 61.0518L25.3334 40Z" fill="url(#paint0_linear_497_372)"/>
<mask id="mask0_497_372" style="mask-type:alpha" maskUnits="userSpaceOnUse" x="25" y="40" width="35" height="24">
<path d="M25.3334 40H46.6667L60.0001 64H40.6296C38.6094 64 36.7627 62.8587 35.8593 61.0518L25.3334 40Z" fill="url(#paint1_linear_497_372)"/>
</mask>
<g mask="url(#mask0_497_372)">
<path d="M2.33575 41.1577C2.4384 41.1344 2.52218 41.0955 2.58836 41.0519C2.83409 40.6043 2.86527 40.8694 2.58836 41.0519C2.57073 41.084 2.55199 41.1198 2.53218 41.1595L28.7307 41.4059L41.3777 30.9734L47.872 41.4059C48.7559 43.1896 50.752 46.7569 49.762 46.7569C48.5244 46.7569 46.8996 44.4113 45.3969 43.6076C44.1947 42.9645 43.9233 43.9738 44.2478 45.0864C44.6603 46.5007 45.2378 48.6543 44.2478 48.6543C43.0103 48.6543 41.1493 45.6813 39.6737 45.4094C37.583 45.0242 39.5696 51.4792 35.9432 51.2683C34.3039 51.173 33.0122 47.8742 31.4803 45.4094C30.8881 44.4567 29.5673 44.3791 29.3512 46.1845C29.2436 47.0837 28.1464 47.1717 26.7354 44.156C25.0392 40.5309 22.2944 49.1244 21.6266 47.2968C21.0924 45.8347 20.4903 46.6876 20.256 47.2968C20.0919 50.3311 19.5671 56.4136 18.7798 56.4699C17.7957 56.5401 17.866 54.7477 17.2334 51.2683C16.7273 48.4847 15.7573 48.8198 15.3355 49.3353C15.2184 50.003 14.8154 51.2823 14.1406 51.0574C13.4658 50.8325 12.9456 50.6357 12.7699 50.5654C12.3247 51.4557 11.2867 53.1521 10.6963 52.8147C10.1058 52.4773 9.70049 52.6741 9.57162 52.8147C9.51744 53.6727 8.8725 55.5286 6.72623 56.0885C4.04339 56.7883 5.67642 50.9561 6.72623 46.7569C7.56608 43.3975 4.97655 44.735 3.57681 45.8237C2.52705 46.7179 0.684058 47.5266 1.71016 43.6076C2.06066 42.2689 2.34447 41.5362 2.53218 41.1595L2.33575 41.1577Z" fill="url(#paint2_linear_497_372)"/>
</g>
<path d="M37.333 0C49.115 0 58.6668 9.55108 58.667 21.333V26.667C58.6668 35.5033 51.5033 42.6668 42.667 42.667H4V16C4.00001 7.16345 11.1634 1.03081e-06 20 0H37.333ZM22.667 13.334V29.334H34.667C39.085 29.3338 42.6668 25.752 42.667 21.334C42.667 16.9158 39.0851 13.3342 34.667 13.334H22.667Z" fill="url(#paint3_linear_497_372)"/>
<path d="M4 13.3333C4 5.96954 9.96954 0 17.3333 0H22.6667V50.6667C22.6667 58.0305 16.6971 64 9.33333 64H4V13.3333Z" fill="url(#paint4_linear_497_372)"/>
<mask id="mask1_497_372" style="mask-type:alpha" maskUnits="userSpaceOnUse" x="4" y="0" width="19" height="64">
<path d="M4 13.3333C4 5.96954 9.96954 0 17.3333 0H22.6667V50.6667C22.6667 58.0305 16.6971 64 9.33333 64H4V13.3333Z" fill="#D9D9D9"/>
</mask>
<g mask="url(#mask1_497_372)">
<path d="M4 40H22.6667V64H4V40Z" fill="url(#paint5_linear_497_372)"/>
<path d="M0.969765 35.6618C1.06883 35.6393 1.14968 35.6017 1.21355 35.5597C1.45068 35.1277 1.48078 35.3836 1.21355 35.5597C1.19653 35.5907 1.17845 35.6252 1.15933 35.6636L26.4421 35.9013L38.647 25.8335L44.9142 35.9013C45.7673 37.6226 47.2345 41.0652 46.2791 41.0652C45.0848 41.0652 43.9759 38.8017 42.5257 38.026C41.3655 37.4055 41.303 38.2846 41.4167 38.8017C41.8148 40.1666 42.3721 42.8963 41.4167 42.8963C40.2224 42.8963 39.1988 39.3135 36.9809 38.026C35.2065 36.996 34.5923 37.5968 34.507 38.026C34.052 38.7389 32.6985 40.1647 30.9242 40.1647C29.1498 40.1647 28.6494 41.1124 28.621 41.5863C29.9005 45.9186 25.4057 41.2076 22.6821 42.6667C21.5828 43.2556 21.2833 43.4535 19.1914 41.2916C18.1009 40.1647 16.4688 40.905 16.839 42.6667C17.671 46.6253 17.5988 50.3844 16.839 50.4387C15.8893 50.5065 15.9572 48.7768 15.3467 45.4189C14.8583 42.7327 13.7594 43.1792 13.6633 43.7271C13.5503 44.3715 13.0132 45.4325 12.3619 45.2154C11.7107 44.9984 11.4626 44.7406 11.0392 44.7406C9.95096 44.7406 9.37447 47.4137 8.75056 47.6172C7.55713 48.0066 7.75019 46.6253 6.69075 46.6253C3.67419 46.6253 3.65116 52.5592 2.16755 52.9175C0.180339 53.3974 -0.647064 46.9488 0.366045 42.8963C0.603147 41.9479 0.9713 41.2307 1.33971 40.7169C0.450791 41.1367 -0.382347 40.8844 0.366045 38.026C0.704291 36.7341 0.978184 36.0271 1.15933 35.6636L0.969765 35.6618Z" fill="url(#paint6_linear_497_372)"/>
</g>
<path d="M33.3336 0.0244141C33.1131 0.00988919 32.8908 2.09216e-08 32.6666 0C27.1438 0 22.6666 4.47715 22.6666 10C22.6666 10.2242 22.6765 10.4465 22.691 10.667H22.6666V0H33.3336V0.0244141Z" fill="#3C54FF"/>
<defs>
<linearGradient id="paint0_linear_497_372" x1="41.751" y1="42.9803" x2="56.0541" y2="64" gradientUnits="userSpaceOnUse">
<stop stop-color="#EDEDED"/>
<stop offset="1" stop-color="#D1D1D1"/>
</linearGradient>
<linearGradient id="paint1_linear_497_372" x1="41.751" y1="42.9803" x2="56.0541" y2="64" gradientUnits="userSpaceOnUse">
<stop stop-color="#EDEDED"/>
<stop offset="1" stop-color="#D1D1D1"/>
</linearGradient>
<linearGradient id="paint2_linear_497_372" x1="36.6667" y1="43.3331" x2="38.4616" y2="61.5383" gradientUnits="userSpaceOnUse">
<stop stop-color="#3D50FF"/>
<stop offset="1" stop-color="#5666F9"/>
</linearGradient>
<linearGradient id="paint3_linear_497_372" x1="34.0002" y1="42.667" x2="26.5678" y2="-0.213945" gradientUnits="userSpaceOnUse">
<stop stop-color="#3C4FFF"/>
<stop offset="1" stop-color="#36AFFF"/>
</linearGradient>
<linearGradient id="paint4_linear_497_372" x1="13.3333" y1="0" x2="13.3333" y2="64" gradientUnits="userSpaceOnUse">
<stop stop-color="#3C4FFF"/>
<stop offset="1" stop-color="#36C9FF"/>
</linearGradient>
<linearGradient id="paint5_linear_497_372" x1="13.3333" y1="40" x2="13.3333" y2="64" gradientUnits="userSpaceOnUse">
<stop stop-color="#EDEDED"/>
<stop offset="1" stop-color="#D3D3D3"/>
</linearGradient>
<linearGradient id="paint6_linear_497_372" x1="13.8734" y1="36.2173" x2="13.9998" y2="50.6667" gradientUnits="userSpaceOnUse">
<stop stop-color="#3993FF"/>
<stop offset="1" stop-color="#36AFFF"/>
</linearGradient>
</defs>
</svg>
